<svg xmlns="http://www.w3.org/2000/svg" version="1.1" xmlns:xlink="http://www.w3.org/1999/xlink" xmlns:svgjs="http://svgjs.dev/svgjs" width="100%" height="100%" viewBox="0 0 1000 600"><rect width="1000" height="600" x="0" y="0" fill="#ffe4b5"/><g><circle r="166.66666666666666" cx="324.9958140055338" cy="347.21800144890483" fill="#add8e6" transform="matrix(0.7894947368299348,0,0,0.7894947368299344,0,25.873208396150716)"/><path d="M255.608750766002 415.7923470941898L255.608750766002 415.7923470941898Q255.608750766002 414.9034205994515 255.71034236540066 414.19227940366085Q255.7865360649497 413.45574030802044 256.4976772607403 412.7445991122299L256.4976772607403 412.7445991122299Q256.85324785863565 412.7445991122299 257.665980653825 412.6684054126808Q258.4787134490143 412.5668138132822 258.83428404690966 412.5668138132822L258.83428404690966 412.5668138132822Q262.0344194279676 412.5668138132822 264.9805758105289 413.10016971012516Q267.9267321930902 413.63352560696813 271.1522654739978 413.63352560696813L271.1522654739978 413.63352560696813Q277.04457823912037 413.63352560696813 282.4035351074 412.0334579164392Q287.7624919756796 410.43339022591016 291.95314545087456 407.3094485444013Q296.1437989260695 404.1855068628923 298.65819101118643 399.46149749085436Q301.14718519645373 394.7120902189668 301.14718519645373 388.28642155700123L301.14718519645373 388.28642155700123Q301.14718519645373 384.52753237925054 299.97888180336906 380.7940411013496Q298.83597631013413 377.035151923599 296.85494012186007 373.454048044796Q294.89930183343586 369.89834206584277 292.41030764816855 366.7744003843338Q289.8959155630515 363.6504587028249 287.05135077988893 361.31385191665555L287.05135077988893 361.31385191665555L247.04965851666446 328.2965821120893Q246.69408791876913 327.7378283153967 245.34799922673682 326.4171375232141Q244.0019105347045 325.0710488311817 243.29076933891386 324.71547823328643L243.29076933891386 324.71547823328643L243.1129840399662 325.0710488311817Q242.93519874101852 325.0710488311817 242.75741344207086 325.0710488311817L242.75741344207086 325.0710488311817L242.57962814312322 325.0710488311817L242.57962814312322 395.2454461158098L241.69070164838487 408.29996663853825Q241.69070164838487 409.9000343290672 240.0906339578559 410.68736922440684Q238.46516836747725 411.5001020195962 237.3984565737913 411.8556726174915L237.3984565737913 411.8556726174915Q235.2650329864193 412.0334579164392 234.2745148922823 411.14453142170083Q233.28399679814532 410.2556049269626 232.75064090130235 408.65553723643353Q232.21728500445934 407.03007164605486 232.21728500445934 405.25221865657824Q232.21728500445934 403.4743656671016 232.21728500445934 402.20447067461834L232.21728500445934 402.20447067461834L232.21728500445934 311.6863556104076Q228.66157902550606 306.14961344318033 226.42656383873543 300.4350859770054Q224.1915486519648 294.7205585108305 224.1915486519648 288.11710454991726L224.1915486519648 288.11710454991726Q224.1915486519648 286.4916389595386 224.36933395091245 283.8248594753236Q224.54711924986012 281.13268209125897 225.1566688462521 278.54209630659307Q225.79161634249377 275.95151052192705 227.31549033347375 274.09746383290144Q228.83936432445373 272.2180192440261 231.5061438086687 272.2180192440261L231.5061438086687 272.2180192440261Q233.28399679814532 272.2180192440261 234.09672959333466 273.64030163560744Q234.909462388524 275.0625840271888 234.909462388524 276.6880496175674L234.909462388524 276.6880496175674Q234.909462388524 279.35482910178234 234.37610649168099 281.66603798810195Q233.81735269498833 284.0026447742713 233.81735269498833 286.6694242584863L233.81735269498833 286.6694242584863Q233.81735269498833 288.2948898488649 233.74115899543932 290.7838840341322Q233.63956739604066 293.2728782193995 234.7316770895763 295.0761291087258L234.7316770895763 295.0761291087258Q234.909462388524 292.91730762150416 234.98565608807297 289.3616016425509Q235.08724768747163 285.7804977637479 235.7983888832623 282.4025770837423Q236.50953007905295 278.999258503887 238.2111893689806 276.48486641877Q239.88745075905857 273.9958722335028 243.46855463786153 273.9958722335028L243.46855463786153 273.9958722335028Q244.89083702944282 273.9958722335028 245.98294672297848 274.6308197297444Q247.04965851666446 275.24036932613643 247.04965851666446 276.86583491651504L247.04965851666446 276.86583491651504L247.04965851666446 295.0761291087258Q244.89083702944282 297.3873379950454 244.63685803094617 300.3334943776067Q244.35748113259984 303.279650760168 244.35748113259984 306.14961344318033L244.35748113259984 306.14961344318033L244.35748113259984 308.46082232949993Q244.35748113259984 308.99417822634297 244.5352664315475 309.8831047210813L244.5352664315475 309.8831047210813Q244.71305173049518 310.41646061792426 245.34799922673682 311.33078501251225Q245.98294672297848 312.21971150725057 246.77028161831814 313.3626170004856Q247.58301441350744 314.53092039357017 248.29415560929812 315.52143848770726Q249.0052968050888 316.4865586819945 249.53865270193177 317.0453124786872L249.53865270193177 317.0453124786872L289.71813026410393 349.88479698430575Q298.83597631013413 357.5803606387546 304.7282890752566 367.12997098222917Q310.6206018403792 376.6795813257036 310.6206018403792 388.6419921548965L310.6206018403792 388.6419921548965Q310.6206018403792 396.48994320844344 307.3950685594716 402.66163287191233Q304.19493317841363 408.8333225353812 298.83597631013413 413.2017613095239Q293.4770194418545 417.5702000836664 286.59418858259494 419.90680686983575Q279.71135772333537 422.21801575615535 272.3967625666314 422.21801575615535L272.3967625666314 422.21801575615535Q270.97448017505013 422.21801575615535 268.10451749203787 422.04023045720766Q265.25995270887523 421.8624451582601 262.4915816252616 421.3290892614171Q259.723210541648 420.795733364574 257.665980653825 419.55123627194035Q255.608750766002 418.2813412794571 255.608750766002 415.7923470941898ZM357.5813186624123 419.72902157088805L357.5813186624123 402.20447067461834L366.3435941105471 297.74290859294075L367.41030590423304 296.14284090241176L322.0496567727291 292.5617370236088Q320.4495890822001 292.3839517246612 318.9257150912201 291.41883153037384Q317.4018411002402 290.42831343623686 317.4018411002402 288.65046044676023L317.4018411002402 288.65046044676023Q317.4018411002402 287.3805654542769 317.8590032975342 286.7710158578849Q318.29076759497843 286.13606836164325 319.5352646876121 285.42492716585264L319.5352646876121 285.42492716585264L327.23082834206105 285.42492716585264Q351.1556500004467 285.42492716585264 375.182063258231 286.4154452599896Q399.18307861616563 287.3805654542769 423.13329817440103 288.11710454991726L423.13329817440103 288.11710454991726Q424.200009968087 289.0060310446555 424.98734486342664 290.14893653789056Q425.8000776586159 291.3172399309752 425.8000776586159 292.5617370236088L425.8000776586159 292.5617370236088Q425.8000776586159 293.83163201609216 424.27620366763597 295.3301081072225Q422.752329676656 296.85398209820244 421.50783258402237 296.85398209820244L421.50783258402237 296.85398209820244L375.61382755567536 296.85398209820244Q375.61382755567536 306.32739874212797 374.3693304630417 314.98808259086417Q373.12483337040806 323.64876643960037 372.4136921746174 333.2745704826239L372.4136921746174 333.2745704826239Q372.2359068756697 334.7222507740549 372.0581215767221 339.2684748471452Q371.8803362777744 343.81469892023546 371.524765679879 349.80860328475677Q371.1437971821341 355.77710974942835 370.7882265842387 362.5837469091388Q370.43265598634343 369.3649861689998 370.07708538844804 375.33349263367137Q369.72151479055276 381.32739699819257 369.3659441926575 385.8736210712829Q369.0103735947621 390.41984514437314 369.0103735947621 391.8675254358041L369.0103735947621 391.8675254358041Q368.8325882958144 393.28980782738546 369.1119651941607 396.13437261054804Q369.3659441926575 399.00433529356036 369.54372949160506 402.20447067461834Q369.72151479055276 405.43000395552593 369.4675357920561 408.9095162349302Q369.1881588937098 412.3890285143345 368.3754260985204 415.3351848968958Q367.58809120318074 418.2813412794571 365.8102382137041 419.9830005693847Q364.00698732437786 421.6846598593124 361.16242254121516 421.6846598593124L361.16242254121516 421.6846598593124Q360.8068519433199 421.6846598593124 359.8163338491829 421.58306825991366Q358.82581575504594 421.5068745603647 358.64803045609824 421.5068745603647L358.64803045609824 421.5068745603647L357.5813186624123 419.72902157088805Z " fill="#8fbc8f" transform="matrix(0.7894947368299348,0,0,0.7894947368299344,0,25.873208396150716)"/><path d="M606.3758261155696 415.62237991683975L606.3758261155696 415.62237991683975Q606.3758261155696 414.7345057573328 606.4772974480846 414.02420642972714Q606.5534009474709 413.2885392689928 607.2637002750766 412.57823994138715L607.2637002750766 412.57823994138715Q607.6188499388793 412.57823994138715 608.430620599 412.5021364420009Q609.2423912591207 412.40066510948583 609.5975409229235 412.40066510948583L609.5975409229235 412.40066510948583Q612.7938878971486 412.40066510948583 615.7365565400861 412.93338960519003Q618.6792251830235 413.46611410089423 621.9009399903774 413.46611410089423L621.9009399903774 413.46611410089423Q627.7862772762523 413.46611410089423 633.1388900664231 411.8679406137816Q638.4915028565937 410.269767126669 642.6771953228409 407.1495236518302Q646.8628877890881 404.02928017699134 649.3743032688365 399.31086321504Q651.860350915456 394.5670784199597 651.860350915456 388.1490166383807L651.860350915456 388.1490166383807Q651.860350915456 384.3945773353226 650.6934305915325 380.6655058653933Q649.5518781007379 376.9110665623352 647.5731871166937 373.3342020911784Q645.6198639657784 369.7827054531505 643.1338163191588 366.6624619783117Q640.6224008394104 363.54221850347284 637.781203528988 361.2083778556259L637.781203528988 361.2083778556259L597.8268663511737 328.2301947882235Q597.4717166873709 327.6721024593906 596.1272215315461 326.3529751366945Q594.7827263757213 325.0084799808696 594.0724270481156 324.65333031706683L594.0724270481156 324.65333031706683L593.8948522162143 325.0084799808696Q593.7172773843129 325.0084799808696 593.5397025524114 325.0084799808696L593.5397025524114 325.0084799808696L593.36212772051 325.0084799808696L593.36212772051 395.09980291566393L592.474253561003 408.1388691438522Q592.474253561003 409.7370426309648 590.8760800738905 410.5234454579567Q589.2525387536491 411.3352161180774 588.1870897622407 411.6903657818802L588.1870897622407 411.6903657818802Q586.0561917794239 411.8679406137816 585.0668462874019 410.98006645427466Q584.0775007953798 410.0921922947677 583.5447762996757 408.4940188076551Q583.0120518039714 406.87047748741367 583.0120518039714 405.09472916839974Q583.0120518039714 403.3189808493858 583.0120518039714 402.05058919294726L583.0120518039714 402.05058919294726L583.0120518039714 311.63963192200725Q579.4605551659436 306.10944429993515 577.2281858506117 300.40168184596166Q574.9958165352798 294.6939193919882 574.9958165352798 288.0982827785077L574.9958165352798 288.0982827785077Q574.9958165352798 286.4747414582664 575.1733913671812 283.8111189797454Q575.3509661990827 281.12212866809574 575.9597941941731 278.53460968896104Q576.5939900223924 275.9470907098264 578.1160600101186 274.0952388914261Q579.6381299978449 272.2180192398971 582.3017524763659 272.2180192398971L582.3017524763659 272.2180192398971Q584.0775007953798 272.2180192398971 584.8892714555005 273.63861789510827Q585.7010421156212 275.05921655031943 585.7010421156212 276.6827578705608L585.7010421156212 276.6827578705608Q585.7010421156212 279.34638034908176 585.1683176199169 281.6548531637999Q584.610225291084 283.98869381164684 584.610225291084 286.6523162901678L584.610225291084 286.6523162901678Q584.610225291084 288.27585761040916 584.5341217916978 290.76190525702873Q584.4326504591827 293.2479529036483 585.5234672837198 295.049069055791L585.5234672837198 295.049069055791Q585.7010421156212 292.8928032398455 585.7771456150075 289.3413066018175Q585.8786169475226 285.7644421306608 586.5889162751282 282.3905203245343Q587.2992156027337 278.99123068527894 588.9988604223614 276.4798152055306Q590.6731374088604 273.99376755891103 594.250001880017 273.99376755891103L594.250001880017 273.99376755891103Q595.6706005352282 273.99376755891103 596.7614173597653 274.6279633871303Q597.8268663511737 275.2367913822209 597.8268663511737 276.8603327024622L597.8268663511737 276.8603327024622L597.8268663511737 295.049069055791Q595.6706005352282 297.3575418705092 595.4169222039404 300.3002105134466Q595.137876039524 303.24287915638405 595.137876039524 306.10944429993515L595.137876039524 306.10944429993515L595.137876039524 308.41791711465333Q595.137876039524 308.95064161035754 595.3154508714254 309.8385157698645L595.3154508714254 309.8385157698645Q595.4930257033268 310.3712402655687 596.1272215315461 311.2844822582045Q596.7614173597653 312.17235641771146 597.5478201867572 313.3139089085062Q598.359590846878 314.4808292324297 599.0698901744836 315.47017472445174Q599.7801895020891 316.43415238334495 600.3129139977933 316.992244712178L600.3129139977933 316.992244712178L640.444826007509 349.7928529476789Q649.5518781007379 357.4793063856966 655.4372153866127 367.01761164211445Q661.3225526724876 376.5559168985323 661.3225526724876 388.5041663021835L661.3225526724876 388.5041663021835Q661.3225526724876 396.34282673897377 658.1008378651337 402.5072101892651Q654.9044908909086 408.67159363955653 649.5518781007379 413.0348609377051Q644.1992653105672 417.3981282358537 637.3245825326702 419.73196888370063Q630.4498997547732 422.04044169841876 623.1439638136872 422.04044169841876L623.1439638136872 422.04044169841876Q621.7233651584761 422.04044169841876 618.8568000149248 421.86286686651744Q616.0156027045025 421.685292034616 613.2505088934665 421.1525675389118Q610.4854150824306 420.6198430432076 608.430620599 419.37681921989787Q606.3758261155696 418.1084275634593 606.3758261155696 415.62237991683975ZM668.9836382773765 418.4635772272621L668.9836382773765 417.75327789965644Q669.5163627730806 413.2885392689928 670.4042369325878 409.280421634647Q671.3174789252234 405.2723040003012 672.3829279166318 401.3402898653416Q673.4483769080402 397.4336435635109 674.7928720638649 393.2225832641349Q676.1119993865611 389.0368907978877 677.7355407068026 383.68427800771696L677.7355407068026 383.68427800771696L677.7355407068026 382.79640384821Q670.581811764489 386.9059928150709 667.6391431215516 386.9059928150709Q664.6964744786142 386.9059928150709 664.6203709792278 384.74972699912536Q664.5188996467127 382.61882901630867 666.5736941301432 379.04196454515187Q668.6284886135736 375.490467907124 671.571157256511 372.4463279316714Q674.5138258994486 369.42755578934765 677.6340693742875 367.6264396372049Q680.7543128491263 365.85069131819097 682.555429001269 367.0937151415008L682.555429001269 367.0937151415008Q684.6863269840858 367.0937151415008 686.0308221399107 367.80401446910633Q687.3499494626067 368.5396816298407 688.9734907828481 369.96028028505185L688.9734907828481 369.96028028505185Q693.0577119165803 366.73856547769793 696.6345763877368 364.78524232678257Q700.2114408588936 362.8319191758672 705.2089039852615 362.8319191758672L705.2089039852615 362.8319191758672Q713.0475644220517 362.8319191758672 717.0556820563975 366.38341581389517Q721.0637996907435 369.96028028505185 722.8649158428861 377.79894072184214L722.8649158428861 377.79894072184214Q725.8836879852099 374.7801685795184 728.3951034649583 372.19264960038373Q730.8811511115778 369.6051306212491 733.8238197545152 367.7279109697201Q736.7664883974526 365.85069131819097 740.1657780367079 364.86134582616893Q743.5396998428346 363.8973681672756 747.8268636415969 363.8973681672756L747.8268636415969 363.8973681672756Q751.4037281127535 363.8973681672756 754.7776499188801 366.5609906457965Q758.1769395581355 369.2499809574463 759.5975382133465 372.4463279316714L759.5975382133465 372.4463279316714Q759.5975382133465 373.15662725927706 759.5975382133465 375.66804273902534Q759.5975382133465 378.1540903856449 759.5975382133465 379.04196454515187L759.5975382133465 379.04196454515187Q759.5975382133465 385.13024449605695 758.1769395581355 390.73653561751536Q756.7563409029242 396.34282673897377 756.7563409029242 402.2535318579774L756.7563409029242 402.2535318579774Q756.7563409029242 404.739579504597 757.3651688980149 407.3270984837316Q757.999364726234 409.91461746286626 761.1957117004592 409.91461746286626L761.1957117004592 409.91461746286626Q765.4828754992216 409.91461746286626 768.9582686378631 408.1388691438522Q772.4336617765048 406.3377529917096 775.3763304194422 403.75023401257494Q778.3189990623796 401.1627150334402 780.7289432096129 398.1439428911165Q783.1388873568462 395.09980291566393 785.1936818402767 392.5122839365293Q787.2484763237071 389.92476495739464 789.024224642721 388.1490166383807Q790.8253407948637 386.3732683193668 792.6010891138776 386.3732683193668L792.6010891138776 386.3732683193668Q793.8441129371874 386.3732683193668 795.3661829249138 387.33724597826Q796.8882529126399 388.32659147028215 796.8882529126399 389.7471901254933L796.8882529126399 389.7471901254933Q796.8882529126399 389.92476495739464 796.7867815801249 390.2799146211975Q796.7106780807385 390.6350642850003 796.7106780807385 390.83800695003043L796.7106780807385 390.83800695003043Q794.9095619285958 396.34282673897377 791.5356401224694 401.3402898653416Q788.1363504832141 406.3377529917096 783.6716118525503 410.16829579415395Q779.2322410550153 414.02420642972714 773.7781569323297 416.2312079119302Q768.3494406427726 418.4635772272621 762.2865285249964 418.4635772272621L762.2865285249964 418.4635772272621Q756.5787660710228 418.4635772272621 752.6467519360633 416.96687507266455Q748.7147378011039 415.4448050849383 746.5838398182871 409.91461746286626L746.5838398182871 409.91461746286626Q746.5838398182871 409.38189296716206 746.482368485772 407.50467331563294Q746.4062649863856 405.62745366410394 746.4062649863856 405.2723040003012L746.4062649863856 405.2723040003012Q746.4062649863856 398.4990925549193 747.7253923090818 392.2586056052416Q749.0698874649065 386.0181186555639 749.0698874649065 379.6000568739849L749.0698874649065 379.6000568739849Q749.0698874649065 379.04196454515187 748.9937839655204 377.26621622613794Q748.8923126330053 375.490467907124 748.8923126330053 374.9577434114198L748.8923126330053 374.9577434114198Q748.1820133053996 374.06986925191285 746.6599433176734 374.06986925191285Q745.1632411630758 374.06986925191285 743.8948495066372 374.06986925191285L743.8948495066372 374.06986925191285Q740.1657780367079 374.06986925191285 736.7664883974526 376.73349173043374Q733.3671987581974 379.42248204208346 730.5260014477749 383.50670317581563Q727.6594363042238 387.6162921426765 725.4524348220207 392.6898587684307Q723.220065506689 397.78879322731365 721.5965241864476 402.86235985306786Q719.9983506993351 407.9612943119509 719.0090052073128 412.32456161009947Q718.0450275484197 416.68782890824815 717.8674527165183 419.5543940517992L717.8674527165183 419.5543940517992L715.888761732474 421.33014237081323L709.8258496146977 421.33014237081323Q708.2276761275853 421.33014237081323 708.1515726281989 419.63049755118556Q708.0501012956838 417.9308527315579 708.0501012956838 417.0429785720509L708.0501012956838 417.0429785720509Q708.0501012956838 412.7558147732886 708.6842971239032 408.39254747514Q709.2931251189937 404.02928017699134 710.1048957791143 399.66601287884276Q710.9166664392351 395.27737774756537 711.6269657668406 390.83800695003043Q712.3372650944461 386.3732683193668 712.5148399263476 382.08610452060447L712.5148399263476 382.08610452060447Q712.3372650944461 380.6655058653933 712.1596902625447 378.9658610457656Q711.9821154306433 377.26621622613794 711.4493909349392 375.8456175709268Q710.9166664392351 374.4250189157156 709.8258496146977 373.4356734236936Q708.7604006232896 372.4463279316714 706.807077472374 372.4463279316714L706.807077472374 372.4463279316714Q703.9405123288229 372.4463279316714 701.276889850302 373.5117769230798Q698.5878995386522 374.60259374761694 696.3555302233203 376.2768707341159Q694.1485287411174 377.97651555374347 692.4488839214896 380.3864597009768Q690.749239101862 382.79640384821 690.0389397742565 385.66296899176115L690.0389397742565 385.66296899176115L679.3337141939151 420.26469337940483L677.7355407068026 422.04044169841876Q677.7355407068026 422.04044169841876 676.6700917153942 422.14191303093384Q675.579274890857 422.2180165303202 675.0465503951527 422.2180165303202L675.0465503951527 422.2180165303202Q673.0932272442374 422.2180165303202 671.0384327608069 421.76139553400236Q668.9836382773765 421.33014237081323 668.9836382773765 418.4635772272621L668.9836382773765 418.4635772272621ZM789.7345239703266 400.45241570583465L792.245939450075 384.57215216722403Q792.4235142819764 383.68427800771696 793.3113884414834 381.3758051929988Q794.1992626009903 379.04196454515187 795.1886080930124 376.378342066631Q796.1525857519057 373.71471958811 797.0658277445414 371.380878940263Q797.9537019040483 369.0724061255449 798.3088515678512 368.1845319660379L798.3088515678512 368.1845319660379Q799.3743005592596 365.31796682248677 800.3636460512816 364.4300926629798Q801.327623710175 363.54221850347284 804.0166140218246 363.54221850347284L804.0166140218246 363.54221850347284Q806.8578113322469 363.54221850347284 807.7710533248828 365.4955416543882Q808.6589274843898 367.4488648053036 808.6589274843898 370.1378551169533L808.6589274843898 370.1378551169533Q808.6589274843898 374.7801685795184 807.3144323285649 378.61071138196274Q805.96993717274 382.4412541844072 804.3717636856275 386.2717969868517Q802.773590198515 390.1023397892961 801.42909504269 394.4909749205735Q800.0845998868651 398.85424221872205 800.0845998868651 404.56200467269554L800.0845998868651 404.56200467269554Q800.0845998868651 405.2723040003012 800.0845998868651 406.616799156126Q800.0845998868651 407.9612943119509 800.2621747187666 409.280421634647Q800.439749550668 410.6249167904718 800.9724740463721 411.61426228249394Q801.5051985420764 412.57823994138715 802.4184405347121 412.57823994138715L802.4184405347121 412.57823994138715Q807.0353861641483 412.57823994138715 811.7791709592286 410.726388122987Q816.49758792118 408.84916847145786 821.0384300512301 406.2616494923232Q825.6046400144087 403.6741305131886 829.7903324806559 400.5538870383497Q833.9760249469032 397.4336435635109 837.3753145861585 395.09980291566393L837.3753145861585 395.09980291566393Q838.6183384094684 394.21192875615696 839.2525342376875 393.32405459665Q839.8613622327782 392.43618043714304 840.3940867284823 391.6244097770223Q840.9268112241866 390.83800695003043 841.7385818843072 390.20381112181116Q842.5503525444278 389.5696152935919 844.3261008634418 389.5696152935919L844.3261008634418 389.5696152935919Q846.63457367816 389.5696152935919 848.1566436658863 390.5589607856139Q849.6787136536125 391.5483062776361 849.6787136536125 394.03435392425564L849.6787136536125 394.03435392425564Q849.6787136536125 395.09980291566393 849.5772423210974 395.987677075171Q849.501138821711 396.9009190678067 848.6132646622041 397.6112183954123L848.6132646622041 397.6112183954123Q848.4356898303026 398.1439428911165 847.2687695063794 399.0318170506235Q846.1018491824559 399.91969121013045 844.8588253591461 400.9090367021525Q843.6158015358362 401.8730143610458 842.5503525444278 402.68478502116653Q841.4595357198907 403.49655568128713 840.9268112241866 403.6741305131886L840.9268112241866 403.6741305131886Q840.7492363922852 403.6741305131886 839.9628335652933 404.1053836763777Q839.1510629051725 404.56200467269554 838.9734880732713 404.56200467269554L838.9734880732713 404.56200467269554Q838.7959132413698 404.739579504597 838.5168670769533 405.0186256690135Q838.2631887456655 405.2723040003012 838.2631887456655 405.4498788322025L838.2631887456655 405.4498788322025Q834.5087494426075 408.31644397575366 830.1454821444588 411.25911261869106Q825.7822148463101 414.2017812616286 820.9623265518437 416.6117254088618Q816.1424382573773 418.9963017229663 811.0688716316231 420.6198430432076Q805.96993717274 422.2180165303202 800.9724740463721 422.2180165303202L800.9724740463721 422.2180165303202Q796.7106780807385 422.2180165303202 794.4783087654068 419.9856472149883Q792.245939450075 417.75327789965644 791.1804904586666 414.3793560935299Q790.0896736341294 410.98006645427466 789.912098802228 407.22562715121654Q789.7345239703266 403.49655568128713 789.7345239703266 400.45241570583465L789.7345239703266 400.45241570583465ZM800.7948992144707 337.6670287121264L800.7948992144707 337.6670287121264Q800.7948992144707 334.4706817379012 802.0632908709092 333.3798649133641Q803.306314694219 332.3144159219557 806.5026616684443 332.3144159219557L806.5026616684443 332.3144159219557Q808.1262029886855 332.3144159219557 809.7243764757982 332.94861175017496Q811.3225499629107 333.5574397452654 811.3225499629107 335.89128039311237L811.3225499629107 335.89128039311237Q811.3225499629107 338.1997532078306 809.0901806475788 340.1784441918747Q806.8578113322469 342.13176734279006 804.7269133494303 342.13176734279006L804.7269133494303 342.13176734279006Q802.5960153666135 342.13176734279006 801.6827733739776 340.78727218696525Q800.7948992144707 339.46814486426916 800.7948992144707 337.6670287121264ZM853.0526354597391 390.83800695003043L857.5173740904029 374.2474440838142Q857.8725237542055 373.5117769230798 858.9379727456139 372.0150747684823Q860.028789570151 370.49300478075605 860.028789570151 369.42755578934765L860.028789570151 369.42755578934765L860.028789570151 368.89483129364345Q860.028789570151 368.7172564617421 859.6736399063484 368.4382102973256Q859.3184902425455 368.1845319660379 859.1409154106441 368.1845319660379L859.1409154106441 368.1845319660379L855.9192006032902 368.1845319660379Q851.2768871407252 369.6051306212491 845.4930211873652 370.1378551169533Q839.6837874008768 370.6705796126575 834.2550711113197 370.49300478075605Q828.8009869886339 370.3154299488547 824.8943406868032 369.503659288734Q820.9623265518437 368.7172564617421 820.2520272242382 367.6264396372049Q819.5417278966324 366.5609906457965 822.9156497027591 365.0642884911991Q826.3149393420144 363.54221850347284 835.7517732659173 361.9186771832315L835.7517732659173 361.9186771832315Q836.3098655947501 361.9186771832315 838.1617174131504 361.4874240200424Q840.0389370646794 361.03080302372445 842.2713063800113 360.6756533599217Q844.5036756953432 360.3205036961189 846.4569988462586 359.8892505329298Q848.4356898303026 359.43262953661196 848.968414326007 359.43262953661196L848.968414326007 359.43262953661196Q849.6787136536125 359.2550547047105 851.9871864683307 359.15358337219544Q854.3210271161777 359.0774798728091 856.730971263411 358.89990504090775Q859.1409154106441 358.7223302090063 861.3479168928473 358.7223302090063Q863.5802862081791 358.7223302090063 864.4681603676861 358.7223302090063L864.4681603676861 358.7223302090063L865.3814023603218 357.6568812175979L879.2829749148884 334.29310690599976Q879.993274242494 333.0247152495612 881.870493894023 332.3144159219557Q883.747713545552 331.60411659435005 884.8131625369604 331.60411659435005L884.8131625369604 331.60411659435005Q887.1216353516786 331.60411659435005 888.0348773443143 333.48133624587916Q888.9227515038212 335.35855589740817 888.9227515038212 337.1343042164222L888.9227515038212 337.1343042164222Q888.9227515038212 337.31187904832353 888.8212801713062 337.48945388022497Q888.7451766719198 337.6670287121264 888.7451766719198 337.84460354402773L888.7451766719198 337.84460354402773L888.7451766719198 338.5549028716334L880.8811484020009 357.6568812175979L880.8811484020009 358.7223302090063Q881.2362980658038 357.6568812175979 882.2256435578258 357.6568812175979Q883.2149890498479 357.6568812175979 883.747713545552 357.6568812175979L883.747713545552 357.6568812175979Q886.4113360240731 357.6568812175979 888.9227515038212 359.43262953661196Q891.4087991504409 361.2083778556259 891.4087991504409 364.25251783107836L891.4087991504409 364.25251783107836Q891.4087991504409 365.67311648628953 890.520924990934 366.5609906457965Q889.633050831427 367.4488648053036 888.3900270081172 368.0069571341365Q887.1216353516786 368.5396816298407 885.7010366964673 368.7933599611285Q884.2804380412563 369.0724061255449 883.2149890498479 369.0724061255449L883.2149890498479 369.0724061255449Q881.0587232339024 369.0724061255449 879.2068714155021 368.5396816298407Q877.3296517639728 368.0069571341365 875.1733859480273 368.0069571341365L875.1733859480273 368.0069571341365Q873.220062797112 368.0069571341365 871.6218893099995 370.0363837844382Q869.998347989758 372.09117826786866 868.679220667062 375.38899657460894Q867.3347255112371 378.6868148813491 866.4468513517302 382.79640384821Q865.5589771922232 386.9059928150709 864.8486778646177 390.83800695003043Q864.1130107038832 394.74465325186117 863.8593323725954 398.1439428911165Q863.5802862081791 401.51786469724306 863.5802862081791 403.3189808493858L863.5802862081791 403.3189808493858Q863.5802862081791 404.02928017699134 863.6817575406942 406.16017815980814Q863.7578610400806 408.31644397575366 863.7578610400806 409.0267433033593L863.7578610400806 409.0267433033593Q863.9354358719818 410.0921922947677 864.6457351995875 410.9039629548883Q865.3814023603218 411.6903657818802 866.0917016879273 412.57823994138715L866.0917016879273 412.57823994138715L870.1759228216595 412.57823994138715Q877.3296517639728 412.57823994138715 884.3565415406424 409.38189296716206Q891.4087991504409 406.16017815980814 897.6492861001186 402.05058919294726L897.6492861001186 402.05058919294726Q898.0044357639213 401.8730143610458 899.3489309197462 400.3763122064483Q900.6934260755711 398.85424221872205 902.2915995626836 397.3321722309958Q903.8897730497963 395.81010224326957 905.2342682056212 394.5670784199597Q906.5787633614459 393.32405459665 907.1114878571502 393.32405459665L907.1114878571502 393.32405459665Q908.3545116804598 393.32405459665 909.4199606718682 394.5670784199597Q910.5107774964054 395.81010224326957 910.5107774964054 397.25606873160956L910.5107774964054 397.25606873160956Q910.5107774964054 400.6299905377361 908.1008333491723 403.85170534509Q905.690889201939 407.0480523193151 901.9364498988809 409.8131461303512Q898.1820105958227 412.57823994138715 893.387490134485 414.9120805892341Q888.5676018400186 417.22055340395235 883.8238170449383 418.81872689106484Q879.105400082987 420.44226821130627 874.9197076167397 421.33014237081323Q870.7340151504925 422.2180165303202 868.0450248388427 422.2180165303202L868.0450248388427 422.2180165303202Q865.5589771922232 422.2180165303202 862.8699868805734 421.5838207021009Q860.2063644020525 420.9749927070105 858.050098586107 419.5543940517992Q855.9192006032902 418.1084275634593 854.4986019480791 415.9775295806425Q853.0526354597391 413.8466315978257 853.0526354597391 410.6249167904718L853.0526354597391 410.6249167904718L853.0526354597391 390.83800695003043ZM898.3595854277241 400.8075653696374L898.3595854277241 400.8075653696374Q903.357048554092 397.0784938997081 905.7669927013253 393.50162942855144Q908.1769368485586 389.92476495739464 909.5975355037697 386.3732683193668Q911.0435019921097 382.79640384821 911.9313761516166 378.7882862138642Q912.8192503111236 374.7801685795184 914.772573462039 369.96028028505185L914.772573462039 369.96028028505185Q914.0622741344334 368.7172564617421 913.9861706350471 367.7279109697201Q913.884699302532 366.73856547769793 913.884699302532 365.31796682248677L913.884699302532 365.31796682248677Q913.884699302532 363.8973681672756 914.34132029885 361.9186771832315Q914.772573462039 359.96535403231604 915.6604476215459 358.2657092126885Q916.5736896141818 356.5914322261895 917.8167134374914 355.32304056975096Q919.0597372608013 354.08001674644123 920.8354855798152 354.08001674644123L920.8354855798152 354.08001674644123Q920.6579107479138 354.79031607404676 922.8902800632457 355.67819023355383Q925.1226493785775 356.5914322261895 928.4204676853178 357.6568812175979Q931.7182859920581 358.7223302090063 935.4727252951161 359.96535403231604Q939.2271645981741 361.2083778556259 942.0683619085967 362.6543443439659L942.0683619085967 362.6543443439659Q945.2900767159506 364.4300926629798 946.6092040386466 366.48488714641024Q947.9536991944715 368.5396816298407 947.9536991944715 372.26875309977L947.9536991944715 372.26875309977Q947.9536991944715 375.66804273902534 947.1419285343509 379.95520653778766Q946.355525707359 384.21700250342127 945.5437550472382 388.60563763469855Q944.7573522202463 392.96890493284724 943.9455815601257 397.3321722309958Q943.1338109000051 401.6954395291445 943.1338109000051 405.2723040003012L943.1338109000051 405.2723040003012L943.1338109000051 409.91461746286626Q942.9562360681036 411.51279094997886 943.9455815601257 411.61426228249394Q944.9349270521477 411.6903657818802 945.8228012116547 411.6903657818802L945.8228012116547 411.6903657818802Q947.9536991944715 411.6903657818802 949.7294475134854 410.98006645427466Q951.5305636656283 410.269767126669 953.4077833171573 409.38189296716206Q955.2596351355576 408.4940188076551 957.0607512877002 407.6822481475344Q958.8364996067144 406.87047748741367 960.7898227576295 406.5153278236109L960.7898227576295 406.5153278236109L976.4925114643388 396.9009190678067Q977.2028107919446 395.63252741136813 978.369731115868 394.84612458437624Q979.5366514397915 394.03435392425564 980.6021004311999 393.32405459665L980.6021004311999 393.32405459665Q982.3778487502138 392.2586056052416 984.889264229962 390.2799146211975L984.889264229962 390.2799146211975Q986.1322880532719 389.2144656297891 987.5528867084831 388.1490166383807L987.5528867084831 388.1490166383807L992.9054994986539 388.1490166383807Q993.4382239943579 388.1490166383807 993.6157988262594 389.2144656297891Q993.7933736581608 390.2799146211975 993.7933736581608 390.83800695003043L993.7933736581608 390.83800695003043Q993.7933736581608 392.96890493284724 990.774601515837 396.16525190707233Q987.7304615403846 399.38696671442625 982.9105732459179 402.7862563536816Q978.0906849514515 406.16017815980814 972.2053476655765 409.4579964665484Q966.3200103797017 412.7558147732886 960.7137192582434 415.4448050849383Q955.0820603036561 418.1084275634593 950.3636433417048 419.73196888370063Q945.6452263797532 421.33014237081323 943.1338109000051 421.33014237081323L943.1338109000051 421.33014237081323Q939.9374639257799 421.33014237081323 937.9587729417358 419.73196888370063Q936.0054497908204 418.1084275634593 934.7624259675106 415.7999547487411Q933.5194021442007 413.46611410089423 933.062781147883 410.726388122987Q932.6061601515651 407.9612943119509 932.6061601515651 405.2723040003012L932.6061601515651 405.2723040003012Q932.6061601515651 403.3189808493858 933.8745518080036 399.7421163782291Q935.1175756313135 396.16525190707233 936.715749118426 392.43618043714304Q938.3139226055384 388.6817411340849 939.582314261977 385.13024449605695Q940.8253380852868 381.55338002490026 940.8253380852868 379.42248204208346L940.8253380852868 379.42248204208346Q940.8253380852868 379.2195393770533 938.2378191061523 377.97651555374347Q935.6503001270175 376.73349173043374 932.6061601515651 375.2114217427075Q929.5873880092413 373.71471958811 926.9998690301065 372.5477992641865Q924.412350050972 371.380878940263 924.412350050972 371.2033041083617L924.412350050972 371.2033041083617Q920.4803359160126 375.3128930752226 918.9582659282862 379.95520653778766Q917.4615637736888 384.57215216722403 915.9394937859624 389.5696152935919Q914.4174237982361 394.5670784199597 911.4747551552987 399.5645415463277Q908.5320865123613 404.56200467269554 901.5813002350781 409.38189296716206L901.5813002350781 409.38189296716206Q901.4037254031766 409.38189296716206 900.7695295749575 409.2043181352606Q900.160701579867 409.0267433033593 899.5265057516476 408.2149726432386Q898.8923099234285 407.403201983118 898.5371602596256 405.728924996619Q898.1820105958227 404.02928017699134 898.3595854277241 400.8075653696374ZM984.7116893980606 400.45241570583465L987.1977370446803 384.57215216722403Q987.3753118765817 383.68427800771696 988.2631860360887 381.3758051929988Q989.1510601955956 379.04196454515187 990.1404056876177 376.378342066631Q991.1297511796397 373.71471958811 992.0176253391469 371.380878940263Q992.9054994986539 369.0724061255449 993.2606491624565 368.1845319660379L993.2606491624565 368.1845319660379Q994.3260981538649 365.31796682248677 995.315443645887 364.4300926629798Q996.304789137909 363.54221850347284 998.9684116164301 363.54221850347284L998.9684116164301 363.54221850347284Q1001.8349767599811 363.54221850347284 1002.7228509194881 365.4955416543882Q1003.6107250789953 367.4488648053036 1003.6107250789953 370.1378551169533L1003.6107250789953 370.1378551169533Q1003.6107250789953 374.7801685795184 1002.2662299231704 378.61071138196274Q1000.9217347673455 382.4412541844072 999.3235612802328 386.2717969868517Q997.7253877931203 390.1023397892961 996.3808926372953 394.4909749205735Q995.0363974814704 398.85424221872205 995.0363974814704 404.56200467269554L995.0363974814704 404.56200467269554Q995.0363974814704 405.2723040003012 995.0363974814704 406.616799156126Q995.0363974814704 407.9612943119509 995.2139723133719 409.280421634647Q995.3915471452733 410.6249167904718 995.9242716409776 411.61426228249394Q996.4823639698104 412.57823994138715 997.3702381293176 412.57823994138715L997.3702381293176 412.57823994138715Q1002.0125515918826 412.57823994138715 1006.7309685538339 410.726388122987Q1011.4493855157853 408.84916847145786 1015.9902276458354 406.2616494923232Q1020.5564376090142 403.6741305131886 1024.7421300752615 400.5538870383497Q1028.9278225415087 397.4336435635109 1032.327112180764 395.09980291566393L1032.327112180764 395.09980291566393Q1033.5701360040737 394.21192875615696 1034.2043318322928 393.32405459665Q1034.8131598273835 392.43618043714304 1035.3458843230876 391.6244097770223Q1035.878608818792 390.83800695003043 1036.6903794789125 390.20381112181116Q1037.5021501390331 389.5696152935919 1039.2778984580473 389.5696152935919L1039.2778984580473 389.5696152935919Q1041.5863712727653 389.5696152935919 1043.1084412604916 390.5589607856139Q1044.630511248218 391.5483062776361 1044.630511248218 394.03435392425564L1044.630511248218 394.03435392425564Q1044.630511248218 395.09980291566393 1044.529039915703 395.987677075171Q1044.4529364163166 396.9009190678067 1043.5650622568096 397.6112183954123L1043.5650622568096 397.6112183954123Q1043.3874874249082 398.1439428911165 1042.2205671009847 399.0318170506235Q1041.0536467770612 399.91969121013045 1039.8106229537514 400.9090367021525Q1038.5675991304417 401.8730143610458 1037.5021501390331 402.68478502116653Q1036.436701147625 403.49655568128713 1035.878608818792 403.6741305131886L1035.878608818792 403.6741305131886Q1035.7010339868905 403.6741305131886 1034.9146311598986 404.1053836763777Q1034.102860499778 404.56200467269554 1033.9252856678766 404.56200467269554L1033.9252856678766 404.56200467269554Q1033.747710835975 404.739579504597 1033.4940325046873 405.0186256690135Q1033.214986340271 405.2723040003012 1033.214986340271 405.4498788322025L1033.214986340271 405.4498788322025Q1029.4605470372128 408.31644397575366 1025.0972797390643 411.25911261869106Q1020.7340124409156 414.2017812616286 1015.914124146449 416.6117254088618Q1011.0942358519826 418.9963017229663 1006.0206692262284 420.6198430432076Q1000.9217347673455 422.2180165303202 995.9242716409776 422.2180165303202L995.9242716409776 422.2180165303202Q991.662475675344 422.2180165303202 989.4301063600121 419.9856472149883Q987.1977370446803 417.75327789965644 986.1322880532719 414.3793560935299Q985.0668390618634 410.98006645427466 984.889264229962 407.22562715121654Q984.7116893980606 403.49655568128713 984.7116893980606 400.45241570583465L984.7116893980606 400.45241570583465ZM995.7466968090762 337.6670287121264L995.7466968090762 337.6670287121264Q995.7466968090762 334.4706817379012 997.0150884655145 333.3798649133641Q998.2581122888246 332.3144159219557 1001.4544592630496 332.3144159219557L1001.4544592630496 332.3144159219557Q1003.078000583291 332.3144159219557 1004.6761740704035 332.94861175017496Q1006.2743475575162 333.5574397452654 1006.2743475575162 335.89128039311237L1006.2743475575162 335.89128039311237Q1006.2743475575162 338.1997532078306 1004.0419782421843 340.1784441918747Q1001.8349767599811 342.13176734279006 999.6787109440356 342.13176734279006L999.6787109440356 342.13176734279006Q997.5478129612188 342.13176734279006 996.6599388017119 340.78727218696525Q995.7466968090762 339.46814486426916 995.7466968090762 337.6670287121264ZM1048.384950551276 400.45241570583465L1050.8709981978957 384.57215216722403Q1051.048573029797 383.68427800771696 1051.9364471893039 381.3758051929988Q1052.8243213488108 379.04196454515187 1053.813666840833 376.378342066631Q1054.803012332855 373.71471958811 1055.690886492362 371.380878940263Q1056.578760651869 369.0724061255449 1056.933910315672 368.1845319660379L1056.933910315672 368.1845319660379Q1057.9993593070803 365.31796682248677 1058.9887047991024 364.4300926629798Q1059.9780502911244 363.54221850347284 1062.6416727696453 363.54221850347284L1062.6416727696453 363.54221850347284Q1065.5082379131964 363.54221850347284 1066.3961120727035 365.4955416543882Q1067.2839862322105 367.4488648053036 1067.2839862322105 370.1378551169533L1067.2839862322105 370.1378551169533Q1067.2839862322105 374.7801685795184 1065.9394910763856 378.61071138196274Q1064.6203637536894 382.4412541844072 1062.9968224334482 386.2717969868517Q1061.3986489463357 390.1023397892961 1060.0541537905108 394.4909749205735Q1058.7096586346859 398.85424221872205 1058.7096586346859 404.56200467269554L1058.7096586346859 404.56200467269554Q1058.7096586346859 405.2723040003012 1058.7096586346859 406.616799156126Q1058.7096586346859 407.9612943119509 1058.912601299716 409.280421634647Q1059.0901761316172 410.6249167904718 1059.6229006273215 411.61426228249394Q1060.1556251230256 412.57823994138715 1061.0434992825328 412.57823994138715L1061.0434992825328 412.57823994138715Q1065.6858127450978 412.57823994138715 1070.4042297070494 410.726388122987Q1075.1226466690007 408.84916847145786 1079.6888566321793 406.2616494923232Q1084.2296987622294 403.6741305131886 1088.4153912284767 400.5538870383497Q1092.601083694724 397.4336435635109 1096.0003733339793 395.09980291566393L1096.0003733339793 395.09980291566393Q1097.243397157289 394.21192875615696 1097.8775929855083 393.32405459665Q1098.4864209805987 392.43618043714304 1099.0445133094317 391.6244097770223Q1099.5772378051358 390.83800695003043 1100.3636406321277 390.20381112181116Q1101.1754112922486 389.5696152935919 1102.9511596112625 389.5696152935919L1102.9511596112625 389.5696152935919Q1105.2850002591094 389.5696152935919 1106.7817024137069 390.5589607856139Q1108.3037724014332 391.5483062776361 1108.3037724014332 394.03435392425564L1108.3037724014332 394.03435392425564Q1108.3037724014332 395.09980291566393 1108.2276689020468 395.987677075171Q1108.1261975695318 396.9009190678067 1107.2383234100248 397.6112183954123L1107.2383234100248 397.6112183954123Q1107.0607485781234 398.1439428911165 1105.8938282542 399.0318170506235Q1104.7522757634051 399.91969121013045 1103.4838841069666 400.9090367021525Q1102.240860283657 401.8730143610458 1101.1754112922486 402.68478502116653Q1100.1099623008402 403.49655568128713 1099.5772378051358 403.6741305131886L1099.5772378051358 403.6741305131886Q1099.3996629732344 403.6741305131886 1098.5878923131138 404.1053836763777Q1097.7761216529932 404.56200467269554 1097.5985468210918 404.56200467269554L1097.5985468210918 404.56200467269554Q1097.4209719891903 404.739579504597 1097.1672936579027 405.0186256690135Q1096.8882474934862 405.2723040003012 1096.8882474934862 405.4498788322025L1096.8882474934862 405.4498788322025Q1093.1591760235567 408.31644397575366 1088.7705408922795 411.25911261869106Q1084.4072735941309 414.2017812616286 1079.5873852996644 416.6117254088618Q1074.7674970051978 418.9963017229663 1069.6939303794436 420.6198430432076Q1064.6203637536894 422.2180165303202 1059.6229006273215 422.2180165303202L1059.6229006273215 422.2180165303202Q1055.3357368285592 422.2180165303202 1053.1033675132273 419.9856472149883Q1050.8709981978957 417.75327789965644 1049.8055492064873 414.3793560935299Q1048.7401002150787 410.98006645427466 1048.5625253831774 407.22562715121654Q1048.384950551276 403.49655568128713 1048.384950551276 400.45241570583465L1048.384950551276 400.45241570583465ZM1059.44532579542 337.6670287121264L1059.44532579542 337.6670287121264Q1059.44532579542 334.4706817379012 1060.68834961873 333.3798649133641Q1061.9313734420398 332.3144159219557 1065.1530882493937 332.3144159219557L1065.1530882493937 332.3144159219557Q1066.7512617365062 332.3144159219557 1068.349435223619 332.94861175017496Q1069.9476087107314 333.5574397452654 1069.9476087107314 335.89128039311237L1069.9476087107314 335.89128039311237Q1069.9476087107314 338.1997532078306 1067.7406072285282 340.1784441918747Q1065.5082379131964 342.13176734279006 1063.3519720972508 342.13176734279006L1063.3519720972508 342.13176734279006Q1061.221074114434 342.13176734279006 1060.333199954927 340.78727218696525Q1059.44532579542 339.46814486426916 1059.44532579542 337.6670287121264Z " fill="#8fbc8f" transform="matrix(0.7894947368299348,0,0,0.7894947368299344,0,25.873208396150716)"/></g></svg>